<?xml version="1.0" encoding="UTF-8" standalone="no"?>
<svg
   xmlns:dc="http://purl.org/dc/elements/1.1/"
   xmlns:cc="http://creativecommons.org/ns#"
   xmlns:rdf="http://www.w3.org/1999/02/22-rdf-syntax-ns#"
   xmlns:svg="http://www.w3.org/2000/svg"
   xmlns="http://www.w3.org/2000/svg"
   version="1.1"
   id="svg2"
   viewBox="0 0 26.97409 29.511179"
   height="8.3287106mm"
   width="7.6126876mm">
  <defs
     id="defs4" />
  <metadata
     id="metadata7">
    <rdf:RDF>
      <cc:Work
         rdf:about="">
        <dc:format>image/svg+xml</dc:format>
        <dc:type
           rdf:resource="http://purl.org/dc/dcmitype/StillImage" />
        <dc:title></dc:title>
      </cc:Work>
    </rdf:RDF>
  </metadata>
  <g
     transform="translate(-159.61914,-307.66211)"
     id="layer1">
    <path
       id="path4136"
       d="m 171.20312,307.66211 c -5.2459,-0.0917 -10.17933,3.85612 -11.28632,8.976 -1.23167,4.93148 1.28145,10.43731 5.77362,12.79175 3.48995,1.94504 7.98957,1.85123 11.39942,-0.22674 2.22526,2.52231 4.40038,5.09347 6.6575,7.58474 1.08521,0.9692 2.99626,-0.01 2.84346,-1.45696 -0.12544,-1.10299 -1.15586,-1.75178 -1.77096,-2.59444 -1.67498,-1.91801 -3.34995,-3.83603 -5.02492,-5.75404 3.40334,-3.63388 3.97391,-9.5212 1.31188,-13.7327 -2.04666,-3.41383 -5.91503,-5.62349 -9.90368,-5.58761 z m 0,3.5 c 3.87751,-0.0902 7.49156,3.00274 7.99326,6.84985 0.65624,3.76133 -1.74491,7.74954 -5.39202,8.89743 -3.60128,1.28603 -7.95626,-0.39014 -9.71383,-3.79857 -1.91381,-3.39371 -0.91034,-8.0757 2.26665,-10.34828 1.38585,-1.04108 3.11362,-1.6064 4.84594,-1.60043 z"
       style="color:#000000;font-style:normal;font-variant:normal;font-weight:normal;font-stretch:normal;font-size:medium;line-height:normal;font-family:sans-serif;text-indent:0;text-align:start;text-decoration:none;text-decoration-line:none;text-decoration-style:solid;text-decoration-color:#000000;letter-spacing:normal;word-spacing:normal;text-transform:none;direction:ltr;block-progression:tb;writing-mode:lr-tb;baseline-shift:baseline;text-anchor:start;white-space:normal;clip-rule:nonzero;display:inline;overflow:visible;visibility:visible;opacity:1;isolation:auto;mix-blend-mode:normal;color-interpolation:sRGB;color-interpolation-filters:linearRGB;solid-color:#000000;solid-opacity:1;fill:#000000;fill-opacity:1;fill-rule:nonzero;stroke:none;stroke-width:3.5;stroke-linecap:round;stroke-linejoin:round;stroke-miterlimit:4;stroke-dasharray:none;stroke-dashoffset:0;stroke-opacity:1;color-rendering:auto;image-rendering:auto;shape-rendering:auto;text-rendering:auto;enable-background:accumulate" />
  </g>
</svg>
